# Blender 4.1.1
# www.blender.org
o cone
v 0.000000 -1.000000 0.000000
v 0.000000 -1.000000 -1.000000
v 0.069756 -1.000000 -0.997564
v 0.139173 -1.000000 -0.990268
v 0.207912 -1.000000 -0.978148
v 0.275637 -1.000000 -0.961262
v 0.342020 -1.000000 -0.939693
v 0.406737 -1.000000 -0.913545
v 0.469472 -1.000000 -0.882948
v 0.529919 -1.000000 -0.848048
v 0.587785 -1.000000 -0.809017
v 0.642788 -1.000000 -0.766044
v 0.694658 -1.000000 -0.719340
v 0.743145 -1.000000 -0.669131
v 0.788011 -1.000000 -0.615662
v 0.829038 -1.000000 -0.559193
v 0.866025 -1.000000 -0.500000
v 0.898794 -1.000000 -0.438371
v 0.927184 -1.000000 -0.374607
v 0.951057 -1.000000 -0.309017
v 0.970296 -1.000000 -0.241922
v 0.984808 -1.000000 -0.173648
v 0.994522 -1.000000 -0.104528
v 0.999391 -1.000000 -0.034899
v 0.999391 -1.000000 0.034899
v 0.994522 -1.000000 0.104528
v 0.984808 -1.000000 0.173648
v 0.970296 -1.000000 0.241922
v 0.951057 -1.000000 0.309017
v 0.927184 -1.000000 0.374607
v 0.898794 -1.000000 0.438371
v 0.866025 -1.000000 0.500000
v 0.829038 -1.000000 0.559193
v 0.788011 -1.000000 0.615662
v 0.743145 -1.000000 0.669131
v 0.694658 -1.000000 0.719340
v 0.642788 -1.000000 0.766044
v 0.587785 -1.000000 0.809017
v 0.529919 -1.000000 0.848048
v 0.469472 -1.000000 0.882948
v 0.406737 -1.000000 0.913545
v 0.342020 -1.000000 0.939693
v 0.275637 -1.000000 0.961262
v 0.207912 -1.000000 0.978148
v 0.139173 -1.000000 0.990268
v 0.069756 -1.000000 0.997564
v 0.000000 -1.000000 1.000000
v -0.069756 -1.000000 0.997564
v -0.139173 -1.000000 0.990268
v -0.207912 -1.000000 0.978148
v -0.275637 -1.000000 0.961262
v -0.342020 -1.000000 0.939693
v -0.406737 -1.000000 0.913545
v -0.469472 -1.000000 0.882948
v -0.529919 -1.000000 0.848048
v -0.587785 -1.000000 0.809017
v -0.642788 -1.000000 0.766044
v -0.694658 -1.000000 0.719340
v -0.743145 -1.000000 0.669131
v -0.788011 -1.000000 0.615662
v -0.829038 -1.000000 0.559193
v -0.866025 -1.000000 0.500000
v -0.898794 -1.000000 0.438371
v -0.927184 -1.000000 0.374607
v -0.951057 -1.000000 0.309017
v -0.970296 -1.000000 0.241922
v -0.984808 -1.000000 0.173648
v -0.994522 -1.000000 0.104528
v -0.999391 -1.000000 0.034899
v -0.999391 -1.000000 -0.034899
v -0.994522 -1.000000 -0.104528
v -0.984808 -1.000000 -0.173648
v -0.970296 -1.000000 -0.241922
v -0.951057 -1.000000 -0.309017
v -0.927184 -1.000000 -0.374607
v -0.898794 -1.000000 -0.438371
v -0.866025 -1.000000 -0.500000
v -0.829038 -1.000000 -0.559193
v -0.788011 -1.000000 -0.615662
v -0.743145 -1.000000 -0.669131
v -0.694658 -1.000000 -0.719340
v -0.642788 -1.000000 -0.766044
v -0.587785 -1.000000 -0.809017
v -0.529919 -1.000000 -0.848048
v -0.469472 -1.000000 -0.882948
v -0.406737 -1.000000 -0.913545
v -0.342020 -1.000000 -0.939693
v -0.275637 -1.000000 -0.961262
v -0.207912 -1.000000 -0.978148
v -0.139173 -1.000000 -0.990268
v -0.069756 -1.000000 -0.997564
v 0.000000 1.000000 0.000000
vn -0.0000 -1.0000 -0.0000
vn 0.0312 0.4470 -0.8940
vn 0.0935 0.4470 -0.8896
vn 0.1553 0.4470 -0.8809
vn 0.2164 0.4470 -0.8680
vn 0.2764 0.4470 -0.8508
vn 0.3351 0.4470 -0.8294
vn 0.3921 0.4470 -0.8040
vn 0.4473 0.4470 -0.7747
vn 0.5002 0.4470 -0.7416
vn 0.5507 0.4470 -0.7049
vn 0.5986 0.4470 -0.6648
vn 0.6435 0.4470 -0.6214
vn 0.6853 0.4470 -0.5750
vn 0.7237 0.4470 -0.5258
vn 0.7586 0.4470 -0.4740
vn 0.7898 0.4470 -0.4200
vn 0.8172 0.4470 -0.3638
vn 0.8406 0.4470 -0.3059
vn 0.8599 0.4470 -0.2466
vn 0.8750 0.4470 -0.1860
vn 0.8858 0.4470 -0.1245
vn 0.8924 0.4470 -0.0624
vn 0.8945 0.4470 -0.0000
vn 0.8924 0.4470 0.0624
vn 0.8858 0.4470 0.1245
vn 0.8750 0.4470 0.1860
vn 0.8599 0.4470 0.2466
vn 0.8406 0.4470 0.3059
vn 0.8172 0.4470 0.3638
vn 0.7898 0.4470 0.4200
vn 0.7586 0.4470 0.4740
vn 0.7237 0.4470 0.5258
vn 0.6853 0.4470 0.5750
vn 0.6435 0.4470 0.6214
vn 0.5986 0.4470 0.6648
vn 0.5507 0.4470 0.7049
vn 0.5002 0.4470 0.7416
vn 0.4473 0.4470 0.7747
vn 0.3921 0.4470 0.8040
vn 0.3351 0.4470 0.8294
vn 0.2764 0.4470 0.8508
vn 0.2164 0.4470 0.8680
vn 0.1553 0.4470 0.8809
vn 0.0935 0.4470 0.8896
vn 0.0312 0.4470 0.8940
vn -0.0312 0.4470 0.8940
vn -0.0935 0.4470 0.8896
vn -0.1553 0.4470 0.8809
vn -0.2164 0.4470 0.8680
vn -0.2764 0.4470 0.8508
vn -0.3351 0.4470 0.8294
vn -0.3921 0.4470 0.8040
vn -0.4473 0.4470 0.7747
vn -0.5002 0.4470 0.7416
vn -0.5507 0.4470 0.7049
vn -0.5986 0.4470 0.6648
vn -0.6435 0.4470 0.6214
vn -0.6853 0.4470 0.5750
vn -0.7237 0.4470 0.5258
vn -0.7586 0.4470 0.4740
vn -0.7898 0.4470 0.4200
vn -0.8172 0.4470 0.3638
vn -0.8406 0.4470 0.3059
vn -0.8599 0.4470 0.2466
vn -0.8750 0.4470 0.1860
vn -0.8858 0.4470 0.1245
vn -0.8924 0.4470 0.0624
vn -0.8945 0.4470 -0.0000
vn -0.8924 0.4470 -0.0624
vn -0.8858 0.4470 -0.1245
vn -0.8750 0.4470 -0.1860
vn -0.8599 0.4470 -0.2466
vn -0.8406 0.4470 -0.3059
vn -0.8172 0.4470 -0.3638
vn -0.7898 0.4470 -0.4200
vn -0.7586 0.4470 -0.4740
vn -0.7237 0.4470 -0.5258
vn -0.6853 0.4470 -0.5750
vn -0.6435 0.4470 -0.6214
vn -0.5986 0.4470 -0.6648
vn -0.5507 0.4470 -0.7049
vn -0.5002 0.4470 -0.7416
vn -0.4473 0.4470 -0.7747
vn -0.3921 0.4470 -0.8040
vn -0.3351 0.4470 -0.8294
vn -0.2764 0.4470 -0.8508
vn -0.2164 0.4470 -0.8680
vn -0.1553 0.4470 -0.8809
vn -0.0935 0.4470 -0.8896
vn -0.0312 0.4470 -0.8940
vt 0.750000 0.250000
vt 0.750000 0.490000
vt 0.766742 0.489415
vt 0.250000 0.490000
vt 0.250000 0.250000
vt 0.266742 0.489415
vt 0.783402 0.487664
vt 0.283402 0.487664
vt 0.799899 0.484755
vt 0.299899 0.484755
vt 0.816153 0.480703
vt 0.316153 0.480703
vt 0.832085 0.475526
vt 0.332085 0.475526
vt 0.847617 0.469251
vt 0.347617 0.469251
vt 0.862673 0.461907
vt 0.362673 0.461907
vt 0.877181 0.453532
vt 0.377181 0.453532
vt 0.891068 0.444164
vt 0.391068 0.444164
vt 0.904269 0.433851
vt 0.404269 0.433851
vt 0.916718 0.422642
vt 0.416718 0.422642
vt 0.928355 0.410591
vt 0.428355 0.410591
vt 0.939123 0.397759
vt 0.439123 0.397759
vt 0.948969 0.384206
vt 0.448969 0.384206
vt 0.957846 0.370000
vt 0.457846 0.370000
vt 0.965711 0.355209
vt 0.465711 0.355209
vt 0.972524 0.339906
vt 0.472524 0.339906
vt 0.978254 0.324164
vt 0.478254 0.324164
vt 0.982871 0.308061
vt 0.482871 0.308061
vt 0.986354 0.291676
vt 0.486354 0.291676
vt 0.988685 0.275087
vt 0.488685 0.275087
vt 0.989854 0.258376
vt 0.489854 0.258376
vt 0.989854 0.241624
vt 0.489854 0.241624
vt 0.988685 0.224913
vt 0.488685 0.224913
vt 0.986354 0.208324
vt 0.486354 0.208324
vt 0.982871 0.191939
vt 0.482871 0.191939
vt 0.978254 0.175836
vt 0.478254 0.175836
vt 0.972524 0.160094
vt 0.472524 0.160094
vt 0.965711 0.144791
vt 0.465711 0.144791
vt 0.957846 0.130000
vt 0.457846 0.130000
vt 0.948969 0.115794
vt 0.448969 0.115794
vt 0.939123 0.102241
vt 0.439123 0.102241
vt 0.928355 0.089409
vt 0.428355 0.089409
vt 0.916718 0.077358
vt 0.416718 0.077358
vt 0.904269 0.066149
vt 0.404269 0.066149
vt 0.891068 0.055836
vt 0.391068 0.055836
vt 0.877181 0.046468
vt 0.377181 0.046468
vt 0.862673 0.038093
vt 0.362673 0.038093
vt 0.847617 0.030749
vt 0.347617 0.030749
vt 0.832085 0.024474
vt 0.332085 0.024474
vt 0.816153 0.019297
vt 0.316153 0.019297
vt 0.799899 0.015245
vt 0.299899 0.015245
vt 0.783402 0.012336
vt 0.283402 0.012336
vt 0.766742 0.010585
vt 0.266742 0.010585
vt 0.750000 0.010000
vt 0.250000 0.010000
vt 0.733258 0.010585
vt 0.233258 0.010585
vt 0.716598 0.012336
vt 0.216598 0.012336
vt 0.700101 0.015245
vt 0.200101 0.015245
vt 0.683847 0.019297
vt 0.183847 0.019297
vt 0.667915 0.024474
vt 0.167915 0.024474
vt 0.652383 0.030749
vt 0.152383 0.030749
vt 0.637327 0.038093
vt 0.137327 0.038093
vt 0.622819 0.046468
vt 0.122819 0.046468
vt 0.608932 0.055836
vt 0.108932 0.055836
vt 0.595731 0.066149
vt 0.095731 0.066149
vt 0.583282 0.077358
vt 0.083282 0.077358
vt 0.571645 0.089409
vt 0.071645 0.089409
vt 0.560877 0.102241
vt 0.060877 0.102241
vt 0.551031 0.115794
vt 0.051031 0.115794
vt 0.542154 0.130000
vt 0.042154 0.130000
vt 0.534289 0.144791
vt 0.034289 0.144791
vt 0.527476 0.160094
vt 0.027476 0.160094
vt 0.521746 0.175836
vt 0.021746 0.175836
vt 0.517129 0.191939
vt 0.017129 0.191939
vt 0.513646 0.208324
vt 0.013646 0.208324
vt 0.511315 0.224913
vt 0.011315 0.224913
vt 0.510146 0.241624
vt 0.010146 0.241624
vt 0.510146 0.258376
vt 0.010146 0.258376
vt 0.511315 0.275087
vt 0.011315 0.275087
vt 0.513646 0.291676
vt 0.013646 0.291676
vt 0.517129 0.308061
vt 0.017129 0.308061
vt 0.521746 0.324164
vt 0.021746 0.324164
vt 0.527476 0.339906
vt 0.027476 0.339906
vt 0.534289 0.355209
vt 0.034289 0.355209
vt 0.542154 0.370000
vt 0.042154 0.370000
vt 0.551031 0.384206
vt 0.051031 0.384206
vt 0.560877 0.397759
vt 0.060877 0.397759
vt 0.571645 0.410591
vt 0.071645 0.410591
vt 0.583282 0.422642
vt 0.083282 0.422642
vt 0.595731 0.433851
vt 0.095731 0.433851
vt 0.608932 0.444164
vt 0.108932 0.444164
vt 0.622819 0.453532
vt 0.122819 0.453532
vt 0.637327 0.461907
vt 0.137327 0.461907
vt 0.652383 0.469251
vt 0.152383 0.469251
vt 0.667915 0.475526
vt 0.167915 0.475526
vt 0.683847 0.480703
vt 0.183847 0.480703
vt 0.700101 0.484755
vt 0.200101 0.484755
vt 0.716598 0.487664
vt 0.216598 0.487664
vt 0.733258 0.489415
vt 0.233258 0.489415
s 0
f 1/1/1 2/2/1 3/3/1
f 2/4/2 92/5/2 3/6/2
f 1/1/1 3/3/1 4/7/1
f 3/6/3 92/5/3 4/8/3
f 1/1/1 4/7/1 5/9/1
f 4/8/4 92/5/4 5/10/4
f 1/1/1 5/9/1 6/11/1
f 5/10/5 92/5/5 6/12/5
f 1/1/1 6/11/1 7/13/1
f 6/12/6 92/5/6 7/14/6
f 1/1/1 7/13/1 8/15/1
f 7/14/7 92/5/7 8/16/7
f 1/1/1 8/15/1 9/17/1
f 8/16/8 92/5/8 9/18/8
f 1/1/1 9/17/1 10/19/1
f 9/18/9 92/5/9 10/20/9
f 1/1/1 10/19/1 11/21/1
f 10/20/10 92/5/10 11/22/10
f 1/1/1 11/21/1 12/23/1
f 11/22/11 92/5/11 12/24/11
f 1/1/1 12/23/1 13/25/1
f 12/24/12 92/5/12 13/26/12
f 1/1/1 13/25/1 14/27/1
f 13/26/13 92/5/13 14/28/13
f 1/1/1 14/27/1 15/29/1
f 14/28/14 92/5/14 15/30/14
f 1/1/1 15/29/1 16/31/1
f 15/30/15 92/5/15 16/32/15
f 1/1/1 16/31/1 17/33/1
f 16/32/16 92/5/16 17/34/16
f 1/1/1 17/33/1 18/35/1
f 17/34/17 92/5/17 18/36/17
f 1/1/1 18/35/1 19/37/1
f 18/36/18 92/5/18 19/38/18
f 1/1/1 19/37/1 20/39/1
f 19/38/19 92/5/19 20/40/19
f 1/1/1 20/39/1 21/41/1
f 20/40/20 92/5/20 21/42/20
f 1/1/1 21/41/1 22/43/1
f 21/42/21 92/5/21 22/44/21
f 1/1/1 22/43/1 23/45/1
f 22/44/22 92/5/22 23/46/22
f 1/1/1 23/45/1 24/47/1
f 23/46/23 92/5/23 24/48/23
f 1/1/1 24/47/1 25/49/1
f 24/48/24 92/5/24 25/50/24
f 1/1/1 25/49/1 26/51/1
f 25/50/25 92/5/25 26/52/25
f 1/1/1 26/51/1 27/53/1
f 26/52/26 92/5/26 27/54/26
f 1/1/1 27/53/1 28/55/1
f 27/54/27 92/5/27 28/56/27
f 1/1/1 28/55/1 29/57/1
f 28/56/28 92/5/28 29/58/28
f 1/1/1 29/57/1 30/59/1
f 29/58/29 92/5/29 30/60/29
f 1/1/1 30/59/1 31/61/1
f 30/60/30 92/5/30 31/62/30
f 1/1/1 31/61/1 32/63/1
f 31/62/31 92/5/31 32/64/31
f 1/1/1 32/63/1 33/65/1
f 32/64/32 92/5/32 33/66/32
f 1/1/1 33/65/1 34/67/1
f 33/66/33 92/5/33 34/68/33
f 1/1/1 34/67/1 35/69/1
f 34/68/34 92/5/34 35/70/34
f 1/1/1 35/69/1 36/71/1
f 35/70/35 92/5/35 36/72/35
f 1/1/1 36/71/1 37/73/1
f 36/72/36 92/5/36 37/74/36
f 1/1/1 37/73/1 38/75/1
f 37/74/37 92/5/37 38/76/37
f 1/1/1 38/75/1 39/77/1
f 38/76/38 92/5/38 39/78/38
f 1/1/1 39/77/1 40/79/1
f 39/78/39 92/5/39 40/80/39
f 1/1/1 40/79/1 41/81/1
f 40/80/40 92/5/40 41/82/40
f 1/1/1 41/81/1 42/83/1
f 41/82/41 92/5/41 42/84/41
f 1/1/1 42/83/1 43/85/1
f 42/84/42 92/5/42 43/86/42
f 1/1/1 43/85/1 44/87/1
f 43/86/43 92/5/43 44/88/43
f 1/1/1 44/87/1 45/89/1
f 44/88/44 92/5/44 45/90/44
f 1/1/1 45/89/1 46/91/1
f 45/90/45 92/5/45 46/92/45
f 1/1/1 46/91/1 47/93/1
f 46/92/46 92/5/46 47/94/46
f 1/1/1 47/93/1 48/95/1
f 47/94/47 92/5/47 48/96/47
f 1/1/1 48/95/1 49/97/1
f 48/96/48 92/5/48 49/98/48
f 1/1/1 49/97/1 50/99/1
f 49/98/49 92/5/49 50/100/49
f 1/1/1 50/99/1 51/101/1
f 50/100/50 92/5/50 51/102/50
f 1/1/1 51/101/1 52/103/1
f 51/102/51 92/5/51 52/104/51
f 1/1/1 52/103/1 53/105/1
f 52/104/52 92/5/52 53/106/52
f 1/1/1 53/105/1 54/107/1
f 53/106/53 92/5/53 54/108/53
f 1/1/1 54/107/1 55/109/1
f 54/108/54 92/5/54 55/110/54
f 1/1/1 55/109/1 56/111/1
f 55/110/55 92/5/55 56/112/55
f 1/1/1 56/111/1 57/113/1
f 56/112/56 92/5/56 57/114/56
f 1/1/1 57/113/1 58/115/1
f 57/114/57 92/5/57 58/116/57
f 1/1/1 58/115/1 59/117/1
f 58/116/58 92/5/58 59/118/58
f 1/1/1 59/117/1 60/119/1
f 59/118/59 92/5/59 60/120/59
f 1/1/1 60/119/1 61/121/1
f 60/120/60 92/5/60 61/122/60
f 1/1/1 61/121/1 62/123/1
f 61/122/61 92/5/61 62/124/61
f 1/1/1 62/123/1 63/125/1
f 62/124/62 92/5/62 63/126/62
f 1/1/1 63/125/1 64/127/1
f 63/126/63 92/5/63 64/128/63
f 1/1/1 64/127/1 65/129/1
f 64/128/64 92/5/64 65/130/64
f 1/1/1 65/129/1 66/131/1
f 65/130/65 92/5/65 66/132/65
f 1/1/1 66/131/1 67/133/1
f 66/132/66 92/5/66 67/134/66
f 1/1/1 67/133/1 68/135/1
f 67/134/67 92/5/67 68/136/67
f 1/1/1 68/135/1 69/137/1
f 68/136/68 92/5/68 69/138/68
f 1/1/1 69/137/1 70/139/1
f 69/138/69 92/5/69 70/140/69
f 1/1/1 70/139/1 71/141/1
f 70/140/70 92/5/70 71/142/70
f 1/1/1 71/141/1 72/143/1
f 71/142/71 92/5/71 72/144/71
f 1/1/1 72/143/1 73/145/1
f 72/144/72 92/5/72 73/146/72
f 1/1/1 73/145/1 74/147/1
f 73/146/73 92/5/73 74/148/73
f 1/1/1 74/147/1 75/149/1
f 74/148/74 92/5/74 75/150/74
f 1/1/1 75/149/1 76/151/1
f 75/150/75 92/5/75 76/152/75
f 1/1/1 76/151/1 77/153/1
f 76/152/76 92/5/76 77/154/76
f 1/1/1 77/153/1 78/155/1
f 77/154/77 92/5/77 78/156/77
f 1/1/1 78/155/1 79/157/1
f 78/156/78 92/5/78 79/158/78
f 1/1/1 79/157/1 80/159/1
f 79/158/79 92/5/79 80/160/79
f 1/1/1 80/159/1 81/161/1
f 80/160/80 92/5/80 81/162/80
f 1/1/1 81/161/1 82/163/1
f 81/162/81 92/5/81 82/164/81
f 1/1/1 82/163/1 83/165/1
f 82/164/82 92/5/82 83/166/82
f 1/1/1 83/165/1 84/167/1
f 83/166/83 92/5/83 84/168/83
f 1/1/1 84/167/1 85/169/1
f 84/168/84 92/5/84 85/170/84
f 1/1/1 85/169/1 86/171/1
f 85/170/85 92/5/85 86/172/85
f 1/1/1 86/171/1 87/173/1
f 86/172/86 92/5/86 87/174/86
f 1/1/1 87/173/1 88/175/1
f 87/174/87 92/5/87 88/176/87
f 1/1/1 88/175/1 89/177/1
f 88/176/88 92/5/88 89/178/88
f 1/1/1 89/177/1 90/179/1
f 89/178/89 92/5/89 90/180/89
f 1/1/1 90/179/1 91/181/1
f 90/180/90 92/5/90 91/182/90
f 1/1/1 91/181/1 2/2/1
f 91/182/91 92/5/91 2/4/91
